<?xml version="1.0" encoding="UTF-8"?>
<svg version="1.1" xmlns="http://www.w3.org/2000/svg" width="1024" height="1024">
<path d="M0 0 C337.92 0 675.84 0 1024 0 C1024 337.92 1024 675.84 1024 1024 C686.08 1024 348.16 1024 0 1024 C0 686.08 0 348.16 0 0 Z " fill="#262626" transform="translate(0,0)"/>
<path d="M0 0 C337.92 0 675.84 0 1024 0 C1024 337.92 1024 675.84 1024 1024 C686.08 1024 348.16 1024 0 1024 C0 686.08 0 348.16 0 0 Z M176 129 C174.64648438 130.0209375 174.64648438 130.0209375 173.265625 131.0625 C135.32314384 160.69804741 114.68944669 202.85707843 108.74675483 250.00937414 C107.71039855 259.61328577 107.85783655 269.22707555 107.86628723 278.87316895 C107.86441728 280.8985236 107.86211585 282.9238779 107.85942191 284.94923162 C107.85332012 290.49727555 107.8534356 296.04530437 107.85461628 301.59335089 C107.8548207 307.584036 107.84929755 313.57471631 107.84455872 319.56539917 C107.83626017 331.29652936 107.83349124 343.02765578 107.83294634 354.75878829 C107.83248614 364.29831461 107.83042437 373.83783931 107.82724571 383.37736511 C107.82634811 386.12706041 107.8254583 388.87675571 107.82457083 391.62645102 C107.82434979 392.31011344 107.82412874 392.99377586 107.82390099 393.69815533 C107.81774939 412.92060895 107.81380015 432.14306201 107.81424427 451.36551666 C107.81425985 452.08977858 107.81427543 452.8140405 107.81429148 453.56024976 C107.81437458 457.23078162 107.81447362 460.90131349 107.81457619 464.57184535 C107.81459613 465.30077318 107.81461608 466.02970101 107.81463663 466.78071756 C107.81467706 468.25478751 107.81471886 469.72885746 107.81476202 471.2029274 C107.81537442 494.12389805 107.80787358 517.0448539 107.79418945 539.96582031 C107.77880669 565.74237461 107.77022458 591.51891917 107.77115268 617.29547834 C107.7712273 620.04768848 107.77127601 622.79989862 107.77130699 625.55210876 C107.77131865 626.22972626 107.7713303 626.90734376 107.77134231 627.60549511 C107.771373 638.47926156 107.76500489 649.35301509 107.75637473 660.22677771 C107.74787023 671.16907664 107.74710066 682.1113559 107.75348405 693.05365628 C107.75674061 698.97393253 107.75683728 704.89416227 107.7481308 710.81443405 C107.74022643 716.24539219 107.74173715 721.67626724 107.75041493 727.10722345 C107.75194131 729.06078677 107.75016671 731.01435641 107.74455485 732.96791226 C107.70256436 748.63648082 108.47778831 764.29091605 111.625 779.6875 C111.7890332 780.4909082 111.95306641 781.29431641 112.12207031 782.12207031 C115.77651355 798.90946891 121.65383803 814.99718253 130 830 C130.57492188 831.0621875 131.14984375 832.124375 131.7421875 833.21875 C139.20844747 846.56856046 149.54642557 860.68795878 161 871 C161.66 871 162.32 871 163 871 C163 871.66 163 872.32 163 873 C198.34151065 906.46624682 245.6913977 920.15444084 293.33253479 920.14717102 C295.29927849 920.15047471 297.26602153 920.15420133 299.23276371 920.1583125 C304.61906978 920.1682833 310.00536471 920.17204133 315.39167869 920.17470181 C321.20867435 920.17861956 327.0256613 920.18819684 332.84265137 920.19691467 C346.88206706 920.21663801 360.92148344 920.2267402 374.96090952 920.23564246 C381.58274994 920.24003227 388.20458957 920.24539729 394.82642937 920.25063133 C416.8569054 920.26772576 438.88738125 920.28215665 460.91786289 920.28938007 C462.34115465 920.28985482 463.76444642 920.29033071 465.18773818 920.29080774 C465.89351147 920.29104411 466.59928476 920.29128049 467.32644513 920.29152403 C470.9017935 920.29272513 474.47714187 920.29394061 478.05249023 920.29516602 C478.7620084 920.29540617 479.47152656 920.29564632 480.20254528 920.29589374 C503.17968897 920.30377746 526.15678088 920.32719179 549.13390199 920.35972196 C573.46736561 920.394109 597.80079899 920.41373946 622.1342873 920.41702431 C635.38234963 920.41909011 648.63034834 920.4278443 661.87838936 920.45348549 C673.16526467 920.47528129 684.45204538 920.48319947 695.73893935 920.47351871 C701.48799227 920.4689996 707.23685038 920.47071973 712.98587608 920.49028015 C746.19405155 920.69698142 746.19405155 920.69698142 779 916 C779.88743712 915.80575616 780.77487423 915.61151233 781.68920338 915.41138232 C825.96295917 905.52148487 864.53762439 878.05258428 889 840 C908.76703105 808.33072474 916.33842792 773.95731357 916.26069641 736.9390564 C916.26372383 734.86997485 916.26761624 732.80089442 916.27228898 730.73181593 C916.28250183 725.09520933 916.28040441 719.4586668 916.27610838 713.8220551 C916.27362884 707.72368908 916.28267054 701.62533799 916.29014587 695.52697754 C916.30286136 683.59793663 916.30469619 671.6689177 916.30234561 659.7398731 C916.30050742 650.03703517 916.30228356 640.33420383 916.30657005 630.63136673 C916.30717248 629.23352514 916.30777367 627.83568355 916.30837366 626.43784196 C916.30928099 624.33098157 916.31018966 622.22412118 916.31110601 620.11726079 C916.31952659 600.5472103 916.32387748 580.97716227 916.31969929 561.40711021 C916.31954291 560.67050789 916.31938654 559.93390557 916.31922542 559.17498197 C916.31841973 555.44226021 916.31757396 551.70953845 916.31671212 547.9768167 C916.31654103 547.23559184 916.31636994 546.49436698 916.31619367 545.73068076 C916.31584701 544.23174626 916.31549848 542.73281175 916.31514808 541.23387724 C916.30979363 517.92234199 916.31771714 494.6108446 916.33618164 471.29931641 C916.35694144 445.05973979 916.36761671 418.82018662 916.36360615 392.58060133 C916.36321086 389.77757685 916.3628493 386.97455236 916.36250877 384.17152786 C916.36241804 383.48144148 916.36232731 382.7913551 916.36223383 382.08035701 C916.36107244 371.70546139 916.36768114 361.33058959 916.37832069 350.95569992 C916.3904237 339.14230707 916.39159759 327.32895722 916.37953053 315.51556031 C916.37366781 309.4973839 916.37246967 303.47930915 916.38453293 297.46113968 C916.39548011 291.93517454 916.39218479 286.40939485 916.37827124 280.88343807 C916.37564838 278.90105892 916.37791343 276.9186648 916.38600711 274.93630044 C916.54127513 234.01528883 907.23104344 194.81482145 882 162 C880.97519531 160.63875 880.97519531 160.63875 879.9296875 159.25 C869.75971933 146.25718896 857.63224903 134.32546522 844 125 C843.1042627 124.38632568 843.1042627 124.38632568 842.19042969 123.76025391 C822.06429781 110.18475584 799.94908024 101.47097088 776.3125 96.1875 C775.44786133 95.9925293 774.58322266 95.79755859 773.69238281 95.59667969 C758.24580072 92.35889335 742.79457211 91.70411908 727.07124329 91.73930359 C725.12519297 91.73627546 723.17914384 91.73238269 721.23309678 91.72771102 C715.93660548 91.71750745 710.64018245 91.71959316 705.34368575 91.72389162 C699.61139502 91.72637286 693.87912013 91.71732739 688.14683533 91.70985413 C676.93602355 91.69714352 665.72523576 91.6953089 654.51441798 91.69765439 C645.39557209 91.69944188 636.27673344 91.69767869 627.15788841 91.69342995 C625.85699735 91.69283476 624.55610629 91.69223957 623.21579429 91.69162634 C620.57248972 91.69041451 617.92918515 91.68920038 615.28588059 91.68798397 C597.5538668 91.68020418 579.82185611 91.67627236 562.08984089 91.68030071 C561.05147829 91.68053528 561.05147829 91.68053528 559.99213867 91.68077458 C556.48426542 91.68158026 552.97639219 91.68242603 549.46851895 91.68328788 C548.77195108 91.68345897 548.07538322 91.68363006 547.35770723 91.68380633 C545.94908048 91.68415299 544.54045372 91.68450152 543.13182697 91.68485192 C521.22336676 91.69020671 499.31494683 91.68228146 477.40649414 91.66381836 C452.74283196 91.64305725 428.07919567 91.63241458 403.41552418 91.63639385 C390.37503241 91.63830146 377.33457731 91.63586139 364.29409218 91.62167931 C353.19175955 91.6097265 342.08948617 91.60840414 330.98715267 91.62046947 C325.33162054 91.626331 319.67619657 91.62753369 314.02067184 91.61546707 C263.84872536 91.51585961 216.98559206 97.05225644 176 129 Z " fill="#121212" transform="translate(0,0)"/>
<path d="M0 0 C0.27610107 0.72413086 0.55220215 1.44826172 0.83666992 2.19433594 C3.95905521 10.06317659 7.84017891 17.07856434 12.3125 24.25 C26.3667889 47.27551055 34.4642288 67.51697643 34.3125 94.9375 C34.31001251 95.65921387 34.30752502 96.38092773 34.30496216 97.12451172 C34.15155502 126.0495274 28.16156386 153.12790854 15 179 C14.43007324 180.12946045 14.43007324 180.12946045 13.84863281 181.28173828 C4.78831529 198.98426384 -6.77475151 215.18109872 -20 230 C-20.71027344 230.81984375 -21.42054688 231.6396875 -22.15234375 232.484375 C-32.16856638 243.8995114 -42.9307452 254.76224192 -55 264 C-55.94101562 264.73476563 -56.88203125 265.46953125 -57.8515625 266.2265625 C-104.73155795 302.22149305 -163.05077666 319.37381974 -221.9375 311.875 C-253.84576701 307.29805256 -287.8982411 297.54757275 -314 278 C-315.48693359 276.95199219 -315.48693359 276.95199219 -317.00390625 275.8828125 C-330.40228964 266.11761037 -349.58183947 251.05987543 -354.75 234.61328125 C-354.87375 233.81470703 -354.87375 233.81470703 -355 233 C-354.49210937 232.68289063 -353.98421875 232.36578125 -353.4609375 232.0390625 C-346.75467892 227.49287223 -342.56855153 221.7056546 -340 214 C-339.85507877 212.59335074 -339.75371069 211.1818867 -339.68359375 209.76953125 C-339.64169922 208.96708984 -339.59980469 208.16464844 -339.55664062 207.33789062 C-339.51732422 206.50451172 -339.47800781 205.67113281 -339.4375 204.8125 C-339.39431641 203.96751953 -339.35113281 203.12253906 -339.30664062 202.25195312 C-339.20068482 200.16815567 -339.0998498 198.08409897 -339 196 C-337.80850342 195.97494385 -336.61700684 195.9498877 -335.3894043 195.92407227 C-324.72816386 195.69807374 -314.06734993 195.45807123 -303.40684509 195.1995697 C-299.21470935 195.09822801 -295.02271379 194.99731963 -290.83007812 194.91894531 C-262.92766058 194.38680965 -234.85698419 191.91042775 -208 184 C-207.14519043 183.74911621 -206.29038086 183.49823242 -205.40966797 183.23974609 C-178.14286288 174.98270969 -152.33991062 160.90515572 -131 142 C-130.19046875 141.29875 -129.3809375 140.5975 -128.546875 139.875 C-118.11311811 130.68804424 -108.55898625 120.96524929 -100 110 C-99.23429688 109.05125 -98.46859375 108.1025 -97.6796875 107.125 C-79.15643351 83.77736153 -52.45677673 47.71027748 -50.6875 16.9375 C-50.460625 15.968125 -50.23375 14.99875 -50 14 C-44.94081291 11.43820337 -39.61448118 9.87062911 -34.1796875 8.30078125 C-33.35800079 8.0608696 -32.53631409 7.82095795 -31.68972778 7.57377625 C-29.96422299 7.07156577 -28.23804433 6.5716653 -26.51123047 6.07397461 C-23.87351429 5.31207085 -21.23947831 4.5382796 -18.60546875 3.76367188 C-16.92208483 3.2753178 -15.23849777 2.78766328 -13.5546875 2.30078125 C-12.77124969 2.06958084 -11.98781189 1.83838043 -11.18063354 1.60017395 C-7.35399797 0.50819633 -4.0246697 -0.29447583 0 0 Z " fill="#FED32C" transform="translate(671,270)"/>
<path d="M0 0 C0.27610107 0.72413086 0.55220215 1.44826172 0.83666992 2.19433594 C3.95905521 10.06317659 7.84017891 17.07856434 12.3125 24.25 C26.3667889 47.27551055 34.4642288 67.51697643 34.3125 94.9375 C34.31001251 95.65921387 34.30752502 96.38092773 34.30496216 97.12451172 C34.15155502 126.0495274 28.16156386 153.12790854 15 179 C14.43007324 180.12946045 14.43007324 180.12946045 13.84863281 181.28173828 C4.78831529 198.98426384 -6.77475151 215.18109872 -20 230 C-20.71027344 230.81984375 -21.42054688 231.6396875 -22.15234375 232.484375 C-32.16856638 243.8995114 -42.9307452 254.76224192 -55 264 C-55.94101562 264.73476563 -56.88203125 265.46953125 -57.8515625 266.2265625 C-104.73155795 302.22149305 -163.05077666 319.37381974 -221.9375 311.875 C-245.84158246 308.44617922 -269.34959296 301.80266039 -291.1875 291.5 C-292.11965332 291.06147705 -293.05180664 290.6229541 -294.01220703 290.17114258 C-300.45933192 287.02285643 -306.23690577 283.26607543 -312 279 C-309.10829671 279 -306.81826089 279.40500377 -304.00390625 280.0234375 C-281.80373327 284.72516717 -259.88706455 286.14329814 -237.25 286.25 C-236.55237549 286.2554483 -235.85475098 286.26089661 -235.13598633 286.26651001 C-224.92599537 286.32614781 -215.09123034 285.46452144 -205 284 C-204.10909668 283.87963379 -203.21819336 283.75926758 -202.30029297 283.63525391 C-162.8129683 278.25023446 -124.85566968 264.76535055 -92 242 C-91.21189941 241.45762695 -90.42379883 240.91525391 -89.61181641 240.35644531 C-78.45311178 232.60417628 -68.3211969 224.1413649 -58.64208984 214.61132812 C-57.24337918 213.23881989 -55.82128642 211.8902067 -54.39453125 210.546875 C-47.85196451 204.29380237 -42.44594369 197.19933299 -37 190 C-36.28714844 189.07058594 -35.57429688 188.14117187 -34.83984375 187.18359375 C-8.26236725 151.72934578 6.86297989 106.7328129 1.17773438 62.30175781 C-1.87229196 41.51427884 -8.4983571 22.68585897 -18 4 C-15.94037148 3.32451422 -13.87715678 2.65995688 -11.8125 2 C-10.66394531 1.62875 -9.51539063 1.2575 -8.33203125 0.875 C-5.32502926 0.08535352 -3.06835551 -0.07321952 0 0 Z " fill="#F7BE01" transform="translate(671,270)"/>
<path d="M0 0 C7.3960009 5.97974541 12.14842631 12.25141997 14.9375 21.375 C15.12957031 21.98730469 15.32164062 22.59960938 15.51953125 23.23046875 C17.70425152 34.43992137 16.28963493 47.42863484 10.25 57.1875 C4.17955933 65.46673962 -2.86136345 70.66498289 -13.0625 72.375 C-23.72135282 73.30648527 -32.68606409 72.15997936 -41.41015625 65.61328125 C-50.96187896 56.8114134 -53.87035111 45.60534146 -54.4375 33 C-54.1827911 21.85648545 -49.93454519 11.80972274 -42.47265625 3.6328125 C-30.73011072 -7.47425409 -13.69811035 -7.26838508 0 0 Z " fill="#FBFBFB" transform="translate(745.0625,692.625)"/>
<path d="M0 0 C1.13427397 2.3292043 2.25740384 4.66280485 3.375 7 C3.69210937 7.64839844 4.00921875 8.29679688 4.3359375 8.96484375 C9.83625824 20.53843531 11.23451106 33.94369574 7.4375 46.3125 C0.57821229 63.7703399 -11.39103935 77.33936461 -28.1875 85.75 C-44.09777976 92.54945665 -60.86217423 92.8782578 -77 87 C-80.3822305 85.34798568 -83.16122369 83.4633069 -86 81 C-86.71542969 80.39027344 -87.43085938 79.78054688 -88.16796875 79.15234375 C-90.20307049 77.17235114 -91.69838628 75.52558732 -93 73 C-93.03248059 68.93992675 -91.79634248 65.59268496 -90 62 C-87.62522203 61.78605604 -85.31699224 61.6797964 -82.9375 61.625 C-62.71616066 60.70109005 -46.17567005 53.52300653 -32 39 C-31.09314453 38.12408203 -31.09314453 38.12408203 -30.16796875 37.23046875 C-22.14240048 28.86609021 -16.73888543 15.25533114 -15 4 C-12.87607494 3.3299166 -10.75082476 2.66403203 -8.625 2 C-7.44164062 1.62875 -6.25828125 1.2575 -5.0390625 0.875 C-2 0 -2 0 0 0 Z " fill="#FDD83F" transform="translate(279,689)"/>
<path d="M0 0 C41.05822127 0 41.05822127 0 48.6953125 7.47265625 C52.14435722 11.51031039 52.39103323 15.5939998 52.24609375 20.7265625 C51.69210993 25.84431778 49.80372051 29.5595691 46 32.9375 C43 35 43 35 40 35 C40 35.66 40 36.32 40 37 C40.845625 37.04125 41.69125 37.0825 42.5625 37.125 C47.87574037 38.47746118 51.49723975 41.64785352 54.4375 46.25 C55.8745853 53.27575034 55.74225677 59.72266606 52 66 C47.09470259 71.77735028 42.59932521 72.72020244 35 75 C23.45 75 11.9 75 0 75 C0 50.25 0 25.5 0 0 Z " fill="#FDFDFD" transform="translate(313,689)"/>
<path d="M0 0 C6.56964466 2.81060502 10.75215314 6.99575827 13.49584961 13.60131836 C15.11127648 18.02127529 15.98358559 22.43464915 16.75390625 27.06640625 C16.90029037 27.90413071 17.0466745 28.74185516 17.19749451 29.60496521 C17.65981802 32.2562717 18.111864 34.90918424 18.5625 37.5625 C19.0181052 40.21911053 19.47601077 42.87527625 19.93821716 45.53074646 C20.22400022 47.17509985 20.50586824 48.82014033 20.78309631 50.46595764 C21.58156485 55.08883101 22.62903315 59.51242066 24 64 C22.97567871 64.27094482 22.97567871 64.27094482 21.93066406 64.54736328 C9.2453037 67.91100239 -3.41537424 71.30192264 -15.94238281 75.22119141 C-19.06166477 76.18580191 -21.7139899 77 -25 77 C-25.09704224 76.16359985 -25.09704224 76.16359985 -25.19604492 75.31030273 C-27.09831564 59.41450403 -30.36037202 45.41492287 -37.76464844 31.09619141 C-39.7099652 27.21311461 -40.7518594 24.32175672 -40 20 C-36.26038818 13.87559335 -30.79891806 11.40997346 -24.5 8.3125 C-22.63484541 7.37222606 -20.7702439 6.43085405 -18.90625 5.48828125 C-18.08447266 5.08134033 -17.26269531 4.67439941 -16.41601562 4.25512695 C-14.68675737 3.3567724 -12.99374251 2.38726747 -11.3293457 1.3737793 C-7.57796816 -0.83867238 -4.22364279 -0.7532163 0 0 Z " fill="#674211" transform="translate(647,206)"/>
<path d="M0 0 C4.33038821 3.35313704 6.39891621 6.49304694 8.01171875 11.7109375 C8.01171875 13.3609375 8.01171875 15.0109375 8.01171875 16.7109375 C3.72171875 16.7109375 -0.56828125 16.7109375 -4.98828125 16.7109375 C-5.38015625 15.7828125 -5.77203125 14.8546875 -6.17578125 13.8984375 C-8.19896411 10.34042627 -9.35774877 9.45174444 -12.98828125 7.7109375 C-15.93752932 7.24011314 -15.93752932 7.24011314 -18.98828125 7.3359375 C-19.99890625 7.32820312 -21.00953125 7.32046875 -22.05078125 7.3125 C-25.38839511 7.76520826 -27.28558062 8.73217454 -29.98828125 10.7109375 C-31.55528567 13.84494635 -31.83992686 17.34248845 -30.98828125 20.7109375 C-26.15899289 26.15297427 -18.37793149 27.1100668 -11.62304688 28.890625 C-3.78849322 31.0955287 2.65801924 34.14107076 7.51171875 40.8984375 C10.14686803 46.21579229 9.98097218 52.37303516 8.3515625 57.984375 C5.47756242 64.47886869 0.72425032 68.20397552 -5.36328125 71.5859375 C-14.32089534 74.50765928 -26.42321728 74.09133483 -34.90625 69.97265625 C-41.10160256 66.21824935 -44.82243765 62.71807857 -46.98828125 55.7109375 C-46.98828125 54.0609375 -46.98828125 52.4109375 -46.98828125 50.7109375 C-42.69828125 50.7109375 -38.40828125 50.7109375 -33.98828125 50.7109375 C-33.61703125 51.6184375 -33.24578125 52.5259375 -32.86328125 53.4609375 C-30.58614741 57.40796948 -29.12993956 58.78802471 -24.98828125 60.7109375 C-18.70976554 61.54246711 -13.38363427 61.30783952 -7.98828125 57.7109375 C-5.4275036 55.15015985 -5.67376761 53.28211147 -5.52734375 49.78125 C-6.23882937 46.58559427 -7.33271882 45.66495583 -9.98828125 43.7109375 C-14.23135691 42.15358255 -18.63276594 41.16973558 -23.015625 40.08789062 C-31.9369484 37.7525656 -38.59657077 34.32276406 -43.98828125 26.7109375 C-46.50061583 22.28444324 -46.64416052 17.67569453 -45.98828125 12.7109375 C-43.64235755 4.98484148 -38.44489712 0.59636434 -31.55078125 -3.1640625 C-21.79912744 -6.36382391 -8.63761733 -5.60002695 0 0 Z " fill="#FAFAFA" transform="translate(816.98828125,692.2890625)"/>
<path d="M0 0 C4.70300091 3.35665163 6.52787763 6.94219549 7.9921875 12.421875 C8.25249016 15.61010018 8.22561416 18.77954693 8.1875 21.9765625 C8.1846701 22.87811066 8.18184021 23.77965881 8.17892456 24.70852661 C8.16778189 27.57144776 8.1426883 30.43404934 8.1171875 33.296875 C8.10715005 35.24478713 8.09802554 37.19270419 8.08984375 39.140625 C8.06786193 43.9011637 8.033373 48.66146527 7.9921875 53.421875 C3.7021875 53.421875 -0.5878125 53.421875 -5.0078125 53.421875 C-5.5028125 50.451875 -5.5028125 50.451875 -6.0078125 47.421875 C-6.8740625 48.205625 -7.7403125 48.989375 -8.6328125 49.796875 C-13.17949326 53.54682432 -17.83517067 54.98007167 -23.7890625 54.796875 C-28.94650082 53.92519528 -33.83611595 51.61584536 -37.53125 47.8828125 C-40.66676006 43.19066624 -40.90159147 37.88385759 -40.0078125 32.421875 C-37.21374648 26.83374295 -33.586476 23.34630154 -27.6953125 21.234375 C-20.04388691 19.54846767 -12.81623471 19.29269154 -5.0078125 19.421875 C-5.38731259 16.30081392 -5.90833339 13.37476176 -7.0078125 10.421875 C-10.88235744 7.5159663 -14.22818596 6.81170991 -19.0078125 7.421875 C-22.50188019 9.08949822 -23.83451931 10.16193522 -26.0078125 13.421875 C-28.828125 13.71484375 -28.828125 13.71484375 -32.1328125 13.609375 C-33.22851562 13.58230469 -34.32421875 13.55523438 -35.453125 13.52734375 C-36.29617188 13.49253906 -37.13921875 13.45773437 -38.0078125 13.421875 C-36.01329421 5.3913145 -33.19425967 1.95118683 -26.0078125 -2.390625 C-17.48491984 -5.65993859 -7.74972463 -4.52279011 0 0 Z " fill="#F9F9F9" transform="translate(532.0078125,710.578125)"/>
<path d="M0 0 C5.41348251 3.15046933 8.5089018 6.82183866 10.375 12.8125 C10.6449089 16.03983115 10.60773034 19.25167448 10.5703125 22.48828125 C10.5674826 23.4134404 10.56465271 24.33859955 10.56173706 25.29179382 C10.55057392 28.23632942 10.52547637 31.18055688 10.5 34.125 C10.48996521 36.12564664 10.48084023 38.12629806 10.47265625 40.12695312 C10.45064722 45.0222535 10.41614391 49.91732457 10.375 54.8125 C6.085 54.8125 1.795 54.8125 -2.625 54.8125 C-3.12 51.8425 -3.12 51.8425 -3.625 48.8125 C-4.511875 49.59625 -5.39875 50.38 -6.3125 51.1875 C-11.23175418 55.24473534 -15.19870865 56.34802428 -21.625 55.8125 C-27.91496062 54.6050032 -31.60377134 52.50658702 -35.53125 47.43359375 C-38.41012958 43.16668294 -38.17959805 38.81928797 -37.625 33.8125 C-34.85744975 28.27739949 -31.24646133 24.78912285 -25.4375 22.625 C-17.83965479 21.00578709 -10.37426302 20.68751189 -2.625 20.8125 C-3.00450009 17.69143892 -3.52552089 14.76538676 -4.625 11.8125 C-7.69626551 9.50905087 -9.86014251 8.92404172 -13.625 8.375 C-17.46005993 8.93427957 -19.60969915 10.42830863 -22.625 12.8125 C-22.955 13.4725 -23.285 14.1325 -23.625 14.8125 C-27.585 14.8125 -31.545 14.8125 -35.625 14.8125 C-34.45030906 8.93904532 -32.58146152 5.66598986 -28.25 1.5625 C-20.10380026 -3.86829983 -8.76093994 -4.13349985 0 0 Z " fill="#FAFAFA" transform="translate(646.625,709.1875)"/>
<path d="M0 0 C3.90833163 3.22862178 7.62566627 6.91050477 8.25985718 12.14468384 C8.34711101 14.80600808 8.33698166 17.45087963 8.29296875 20.11328125 C8.28872391 21.08283249 8.28447906 22.05238373 8.28010559 23.05131531 C8.263354 26.138663 8.22570789 29.22535062 8.1875 32.3125 C8.17244863 34.40949576 8.15876102 36.50650178 8.14648438 38.60351562 C8.11346192 43.73593023 8.06170347 48.86785331 8 54 C4.04 54 0.08 54 -4 54 C-4.495 51.03 -4.495 51.03 -5 48 C-5.680625 48.598125 -6.36125 49.19625 -7.0625 49.8125 C-11.96546779 53.46364623 -16.65427692 55.62599831 -22.88671875 55.34765625 C-28.43134648 54.43550862 -33.29831513 52.21523957 -37 47.9375 C-40.01964753 43.50239269 -40.43484807 40.3051465 -40 35 C-38.3396519 29.42672962 -35.55549875 25.77726882 -30.4609375 22.96484375 C-22.11814402 19.693939 -12.84054111 19.68110273 -4 20 C-4.268125 18.741875 -4.53625 17.48375 -4.8125 16.1875 C-4.96332031 15.47980469 -5.11414063 14.77210938 -5.26953125 14.04296875 C-6.1340604 11.62506102 -6.96164587 10.55459727 -9 9 C-13.45424936 7.65948305 -17.13233471 7.69011954 -21.5 9.25 C-24.27093764 10.81973472 -24.27093764 10.81973472 -25 14 C-29.29 14 -33.58 14 -38 14 C-36.23196141 7.41896747 -34.95693248 3.82142838 -29 0 C-20.25384957 -4.83288402 -8.83009007 -4.55103205 0 0 Z " fill="#FAFAFA" transform="translate(415,710)"/>
<path d="M0 0 C1.13427397 2.3292043 2.25740384 4.66280485 3.375 7 C3.69210937 7.64839844 4.00921875 8.29679688 4.3359375 8.96484375 C9.83625824 20.53843531 11.23451106 33.94369574 7.4375 46.3125 C0.57821229 63.7703399 -11.39103935 77.33936461 -28.1875 85.75 C-44.09777976 92.54945665 -60.86217423 92.8782578 -77 87 C-83.33330668 83.90656408 -89.29482405 79.07597034 -93 73 C-92.67 72.01 -92.34 71.02 -92 70 C-91.38125 70.78375 -90.7625 71.5675 -90.125 72.375 C-85.07515046 77.35432092 -77.57798848 77.10862183 -70.875 77.25 C-51.40021727 76.8618742 -31.28540585 73.19827129 -16.1875 59.9375 C-7.5483112 50.66151596 -4.81950335 39.13033094 -4.8125 26.9375 C-4.80025391 25.84244141 -4.78800781 24.74738281 -4.77539062 23.61914062 C-4.76351978 16.97542339 -4.92967766 10.37400996 -7 4 C-7.99 3.01 -7.99 3.01 -9 2 C-2.25 0 -2.25 0 0 0 Z " fill="#F7C61A" transform="translate(279,689)"/>
<path d="M0 0 C5.7505669 4.34798961 10.25491884 9.67556165 11.5625 16.9375 C12.30524434 26.18054062 12.90318542 35.8875456 7.5625 43.9375 C3.78605311 48.11700155 -0.48239916 51.5364506 -6.171875 52.30859375 C-14.90585513 52.50092233 -19.4797401 50.68132693 -25.75 44.75 C-31.1892898 35.68451701 -31.87353618 25.09058589 -29.81640625 14.84375 C-27.70775087 8.02107837 -24.28900393 3.96515855 -18.4375 -0.0625 C-13.25781355 -2.65234323 -5.36194873 -1.65732961 0 0 Z " fill="#1F1F1F" transform="translate(735.4375,701.0625)"/>
<path d="M0 0 C4.98681065 3.85344459 6.5534909 8.0604438 8 14 C8.35626205 17.22237115 8.35349834 20.39013041 8.29296875 23.62890625 C8.28872391 24.50401352 8.28447906 25.37912079 8.28010559 26.28074646 C8.26347981 29.04166072 8.22585966 31.80181105 8.1875 34.5625 C8.17243228 36.44855707 8.15874756 38.33462573 8.14648438 40.22070312 C8.11362937 44.81409083 8.06196135 49.40691647 8 54 C3.71 54 -0.58 54 -5 54 C-5.0093457 52.8447583 -5.01869141 51.6895166 -5.02832031 50.49926758 C-5.0682661 46.20314318 -5.13403746 41.90773144 -5.20751953 37.61206055 C-5.23570259 35.75473197 -5.2569304 33.89728405 -5.27099609 32.03979492 C-5.29246284 29.36575339 -5.33913069 26.69314265 -5.390625 24.01953125 C-5.39185364 23.19226028 -5.39308228 22.36498932 -5.39434814 21.51264954 C-5.52265659 16.434407 -6.1628655 13.67508425 -10 10 C-13.20613847 8.39693076 -16.52139997 8.51259539 -20 9 C-23.55475373 11.16376314 -25.55220173 13.12601162 -27 17 C-27.2365356 19.8565386 -27.37218519 22.62510746 -27.4140625 25.484375 C-27.43342865 26.29996887 -27.4527948 27.11556274 -27.4727478 27.95587158 C-27.53239575 30.55380892 -27.57886942 33.15179093 -27.625 35.75 C-27.66319342 37.51434194 -27.70224595 39.27866551 -27.7421875 41.04296875 C-27.83808505 45.36182946 -27.92217047 49.68077744 -28 54 C-32.29 54 -36.58 54 -41 54 C-41 35.52 -41 17.04 -41 -2 C-36.71 -2 -32.42 -2 -28 -2 C-27.67 -0.02 -27.34 1.96 -27 4 C-26.113125 3.21625 -25.22625 2.4325 -24.3125 1.625 C-16.84969029 -4.50144611 -8.41185719 -4.69122805 0 0 Z " fill="#FBFBFB" transform="translate(475,710)"/>
<path d="M0 0 C5.24868578 3.70158408 7.37986066 8.02750682 8.7890625 14.26171875 C9.03692149 17.41098327 9.02322971 20.53794068 8.984375 23.6953125 C8.9815451 24.57324966 8.97871521 25.45118683 8.97579956 26.35572815 C8.96467848 29.1370352 8.93958922 31.91801039 8.9140625 34.69921875 C8.90402225 36.59439636 8.89489823 38.48957907 8.88671875 40.38476562 C8.86476565 45.01054292 8.8302921 49.63607473 8.7890625 54.26171875 C4.4990625 54.26171875 0.2090625 54.26171875 -4.2109375 54.26171875 C-4.22552002 53.1722998 -4.24010254 52.08288086 -4.25512695 50.96044922 C-4.31329822 46.9010409 -4.39052932 42.84217638 -4.47338867 38.78320312 C-4.5065497 37.02971248 -4.53460892 35.27611737 -4.55737305 33.52246094 C-4.5910822 30.99499177 -4.64340442 28.46847237 -4.69921875 25.94140625 C-4.70560867 25.16304413 -4.7119986 24.38468201 -4.71858215 23.58273315 C-4.8471574 18.77393374 -5.61178841 15.45270083 -8.2109375 11.26171875 C-11.55964736 8.63058957 -15.09081814 8.90030477 -19.2109375 9.26171875 C-21.91456705 10.46333188 -23.60545166 11.40844947 -25.32177734 13.82714844 C-26.65366027 17.47391848 -26.57031735 21.1277143 -26.625 24.96484375 C-26.64436615 25.80263367 -26.6637323 26.64042358 -26.6836853 27.50360107 C-26.74334474 30.17287088 -26.78981163 32.84218414 -26.8359375 35.51171875 C-26.87412986 37.32423729 -26.91318232 39.13673793 -26.953125 40.94921875 C-27.04903502 45.3865729 -27.1331163 49.824012 -27.2109375 54.26171875 C-31.5009375 54.26171875 -35.7909375 54.26171875 -40.2109375 54.26171875 C-40.2109375 35.78171875 -40.2109375 17.30171875 -40.2109375 -1.73828125 C-35.9209375 -1.73828125 -31.6309375 -1.73828125 -27.2109375 -1.73828125 C-26.8809375 0.24171875 -26.5509375 2.22171875 -26.2109375 4.26171875 C-25.3240625 3.47796875 -24.4371875 2.69421875 -23.5234375 1.88671875 C-16.34741166 -4.00429781 -8.10182553 -4.59964198 0 0 Z " fill="#FCFCFC" transform="translate(591.2109375,709.73828125)"/>
<path d="M0 0 C2.990625 -0.061875 5.98125 -0.12375 9.0625 -0.1875 C9.99070557 -0.21481201 10.91891113 -0.24212402 11.87524414 -0.27026367 C17.36559566 -0.32482107 21.16896582 0.33005263 26 3 C28.46492779 6.38927571 28.9890512 8.37591845 29.0625 12.5625 C27.63520148 17.18023051 25.96082555 18.30663863 22 21 C19.17588235 21.94137255 17.47081968 22.11725382 14.55078125 22.09765625 C13.78677002 22.09515869 13.02275879 22.09266113 12.2355957 22.09008789 C11.27097412 22.08098389 10.30635254 22.07187988 9.3125 22.0625 C4.7028125 22.0315625 4.7028125 22.0315625 0 22 C0 14.74 0 7.48 0 0 Z " fill="#202021" transform="translate(326,731)"/>
<path d="M0 0 C2.701875 -0.04125 5.40375 -0.0825 8.1875 -0.125 C9.02949951 -0.14320801 9.87149902 -0.16141602 10.73901367 -0.18017578 C16.26493938 -0.22089935 20.0696759 0.32366591 24.375 4.0625 C26.38897169 7.70314113 26.33539075 9.8717027 25.68359375 13.91015625 C24.63573997 17.11359494 22.86446798 18.36316116 20 20 C17.29283758 20.90238747 15.76223232 21.11851302 12.98828125 21.09765625 C11.96408081 21.09390991 11.96408081 21.09390991 10.91918945 21.09008789 C10.05898193 21.08098389 9.19877441 21.07187988 8.3125 21.0625 C4.1978125 21.0315625 4.1978125 21.0315625 0 21 C0 14.07 0 7.14 0 0 Z " fill="#202020" transform="translate(326,700)"/>
<path d="M0 0 C0.70129373 13.43367106 -0.31855274 22.22302146 -9.5703125 32.625 C-12.07467523 35.03356743 -13.48935068 36 -17 36 C-20.33697109 28.19488119 -20.49581566 21.98605221 -18.0625 13.875 C-14.88228378 9.44197133 -5.92141271 0 0 0 Z " fill="#644011" transform="translate(332,467)"/>
<path d="M0 0 C4.07189369 4.20762348 4.89274624 11.37228276 5.125 17.0625 C5.08375 17.701875 5.0425 18.34125 5 19 C3.80375 19.474375 2.6075 19.94875 1.375 20.4375 C0.70210938 20.70433594 0.02921875 20.97117187 -0.6640625 21.24609375 C-3.41593202 22.13423893 -6.1429504 22.57840099 -9 23 C-9.48150942 20.95888458 -9.96010083 18.91708068 -10.4375 16.875 C-10.83775391 15.16957031 -10.83775391 15.16957031 -11.24609375 13.4296875 C-11.9350687 10.29538696 -12.50381194 7.16982274 -13 4 C-8.66274015 -0.33725985 -5.88732724 -0.85461202 0 0 Z " fill="#8D5E07" transform="translate(273,670)"/>
<path d="M0 0 C1.25393555 0.02707031 1.25393555 0.02707031 2.53320312 0.0546875 C4.58513228 0.10158874 6.63646756 0.17332589 8.6875 0.25 C8.88200204 5.61376766 8.21706451 8.07025255 4.6875 12.25 C0.31403385 15.1656441 -3.09915994 15.81872801 -8.3125 15.25 C-12.9125 13.05 -12.9125 13.05 -14.3125 10.25 C-14.6875 7.375 -14.6875 7.375 -14.3125 4.25 C-10.04201351 -0.54463071 -5.97077446 -0.24505152 0 0 Z " fill="#202020" transform="translate(402.3125,739.75)"/>
<path d="M0 0 C1.18239258 0.02707031 1.18239258 0.02707031 2.38867188 0.0546875 C4.32214261 0.10155952 6.25498285 0.1732959 8.1875 0.25 C8.4609375 7.890625 8.4609375 7.890625 6 11.125 C1.11617607 14.8150003 -2.64898978 15.9103761 -8.8125 15.25 C-11.75 13.6875 -11.75 13.6875 -13.8125 11.25 C-14.4375 7.75 -14.4375 7.75 -13.8125 4.25 C-9.61486059 -0.40121538 -5.84416575 -0.25473313 0 0 Z " fill="#1D1C1D" transform="translate(635.8125,739.75)"/>
<path d="M0 0 C1.18239258 0.02707031 1.18239258 0.02707031 2.38867188 0.0546875 C4.32214261 0.10155952 6.25498285 0.1732959 8.1875 0.25 C8.4609375 6.8359375 8.4609375 6.8359375 6 10.5625 C2.6359909 13.77699759 0.68708679 15.25883246 -4.0234375 15.2421875 C-10.10934422 14.78919121 -10.10934422 14.78919121 -12.5546875 12.9140625 C-13.8125 11.25 -13.8125 11.25 -14.3125 7.8125 C-13.8125 4.25 -13.8125 4.25 -11.83203125 2.04296875 C-7.75772028 -0.3763181 -4.63546759 -0.20204888 0 0 Z " fill="#1D1C1D" transform="translate(518.8125,739.75)"/>
<path d="M0 0 C0.61328125 1.828125 0.61328125 1.828125 1 4 C-0.8125 6.75 -0.8125 6.75 -3 9 C-3.66 9 -4.32 9 -5 9 C-5.103125 9.598125 -5.20625 10.19625 -5.3125 10.8125 C-6.11135651 13.35431617 -7.10071545 14.17376486 -9 16 C-9.433125 16.721875 -9.86625 17.44375 -10.3125 18.1875 C-13.51249305 23.52082175 -17.25479552 28.93268187 -22 33 C-22.66 33 -23.32 33 -24 33 C-24.24492188 33.56074219 -24.48984375 34.12148438 -24.7421875 34.69921875 C-28.54971378 41.66391745 -35.13596766 47.39017847 -41.17578125 52.4296875 C-43.06984424 54.01855002 -43.06984424 54.01855002 -44.96484375 55.98046875 C-50.5889926 61.56143795 -57.2023094 65.98065706 -64 70 C-62.48021548 65.88157157 -59.55967456 63.91136039 -56.125 61.4375 C-49.3286605 56.37194648 -43.11204757 50.86501298 -37 45 C-35.57494141 43.63681641 -35.57494141 43.63681641 -34.12109375 42.24609375 C-27.92077878 36.18375519 -22.33409785 29.83171285 -17 23 C-16.58862793 22.47615723 -16.17725586 21.95231445 -15.75341797 21.41259766 C-10.27742717 14.43013876 -4.99980537 7.33415158 0 0 Z " fill="#F8E640" transform="translate(588,357)"/>
<path d="M0 0 C18.15 0 36.3 0 55 0 C55 0.33 55 0.66 55 1 C53.77893555 1.02505615 52.55787109 1.0501123 51.29980469 1.07592773 C46.76730955 1.17013579 42.23496286 1.27032384 37.70263672 1.37231445 C35.74140904 1.4156126 33.7801449 1.45729131 31.81884766 1.49731445 C28.99891172 1.55514099 26.17915839 1.61879984 23.359375 1.68359375 C22.04510529 1.70866249 22.04510529 1.70866249 20.70428467 1.73423767 C19.88373596 1.75418289 19.06318726 1.77412811 18.21777344 1.79467773 C17.13855621 1.81799416 17.13855621 1.81799416 16.03753662 1.84178162 C13.97552399 1.94110936 13.97552399 1.94110936 11.93951416 2.54017639 C9.14697296 3.20223723 6.77745341 2.56811547 4 2 C3.86722656 2.86882812 3.73445313 3.73765625 3.59765625 4.6328125 C3.42105469 5.78523438 3.24445313 6.93765625 3.0625 8.125 C2.88847656 9.26195312 2.71445312 10.39890625 2.53515625 11.5703125 C2.18764472 13.79743016 1.82150159 16.02174952 1.43359375 18.2421875 C0.92234207 21.02865076 0.92234207 21.02865076 1 24 C0.01 24.33 -0.98 24.66 -2 25 C-1.67 22.69 -1.34 20.38 -1 18 C-0.505 9.09 -0.505 9.09 0 0 Z " fill="#FCEB3F" transform="translate(332,466)"/>
<path d="M0 0 C2.27592555 0.34274176 4.54586429 0.72541073 6.8125 1.125 C8.07707031 1.33382812 9.34164063 1.54265625 10.64453125 1.7578125 C14 3 14 3 15.703125 5.97265625 C16.13109375 6.97167969 16.5590625 7.97070312 17 9 C18.8351655 10.48941268 18.8351655 10.48941268 20.9375 11.3125 C21.60652344 11.61800781 22.27554687 11.92351563 22.96484375 12.23828125 C24.95925106 12.98474848 26.92435412 13.53100619 29 14 C29 14.66 29 15.32 29 16 C23.56203125 15.09845461 19.3289634 12.80868505 14.5 10.25 C13.65824219 9.81945312 12.81648438 9.38890625 11.94921875 8.9453125 C7.20522925 6.45004873 3.54250989 4.03613831 0 0 Z " fill="#F7CE04" transform="translate(359,548)"/>
<path d="M0 0 C-1.41396902 0.50757862 -2.83131729 1.00574925 -4.25 1.5 C-5.43335938 1.91765625 -5.43335938 1.91765625 -6.640625 2.34375 C-9 3 -9 3 -13 3 C-13.03738281 3.85722656 -13.07476563 4.71445312 -13.11328125 5.59765625 C-13.48438703 12.05198612 -13.93509448 17.26995925 -17 23 C-17.33 23 -17.66 23 -18 23 C-17.72982227 19.65832809 -17.3796461 16.33094258 -17 13 C-16.86851562 11.62134766 -16.86851562 11.62134766 -16.734375 10.21484375 C-16.38351247 7.6253257 -16.00251953 5.41516069 -15 3 C-11.625 0.9375 -11.625 0.9375 -8 0 C-7.278125 -0.2475 -6.55625 -0.495 -5.8125 -0.75 C-3.64241729 -1.04932175 -2.09633274 -0.57291081 0 0 Z " fill="#F3E33E" transform="translate(636,281)"/>
<path d="M0 0 C2.81093662 2.81093662 2.33299068 4.7013292 2.375 8.625 C2.26489387 14.60743296 1.93821656 19.32607265 -2 24 C-4.52842626 26.2389118 -7.15807914 28.17896333 -10 30 C-10 29.01 -10 28.02 -10 27 C-8.57421875 25.640625 -8.57421875 25.640625 -6.6875 24.25 C-3.14061104 21.29186589 -0.85609093 18.62130568 0 14 C0.22597603 9.32126906 0.17524425 4.67967061 0 0 Z " fill="#0D0D0D" transform="translate(825,734)"/>
<path d="M0 0 C2.5 2.3125 2.5 2.3125 5 5 C5 5.99 5 6.98 5 8 C9.29 8 13.58 8 18 8 C18 6.35 18 4.7 18 3 C18.66 3.66 19.32 4.32 20 5 C19.625 7.625 19.625 7.625 19 10 C14.24927623 10.46285807 9.73191777 10.71809398 5 10 C2.29713767 7.7364174 1.03490386 5.34663714 0 2 C0 1.34 0 0.68 0 0 Z " fill="#101011" transform="translate(807,701)"/>
<path d="M0 0 C2.19726562 1.85546875 2.19726562 1.85546875 4.39453125 3.7109375 C5.8655046 4.89201099 7.43037794 5.95358529 9 7 C9 7.99 9 8.98 9 10 C10.76732099 11.4694809 10.76732099 11.4694809 13 12.6875 C13.7425 13.12449219 14.485 13.56148437 15.25 14.01171875 C15.8275 14.33785156 16.405 14.66398438 17 15 C16.01 15.33 15.02 15.66 14 16 C8.54670482 13.11638123 3.32378283 8.19970571 0 3 C0 2.01 0 1.02 0 0 Z " fill="#F5D825" transform="translate(186,759)"/>
<path d="M0 0 C-1.32338632 0.68620031 -2.65949948 1.34786461 -4 2 C-4.70125 2.350625 -5.4025 2.70125 -6.125 3.0625 C-9.87490636 4.28529555 -13.41799051 4.21548905 -17.3125 4.125 C-18.05306641 4.11597656 -18.79363281 4.10695313 -19.55664062 4.09765625 C-21.37123467 4.07424213 -23.18566071 4.03837615 -25 4 C-21.35482044 1.79808951 -17.81244598 1.40156506 -13.625 0.875 C-11.69527344 0.62363281 -11.69527344 0.62363281 -9.7265625 0.3671875 C-6.44921341 0.04426212 -3.2892102 -0.07128319 0 0 Z " fill="#F2E240" transform="translate(444,460)"/>
<path d="M0 0 C0.33 0.99 0.66 1.98 1 3 C-2.48667265 6.13620813 -6.30036803 7.10663477 -10.75 8.1875 C-11.79607422 8.45336914 -11.79607422 8.45336914 -12.86328125 8.72460938 C-14.57344679 9.15800749 -16.28646044 9.58014018 -18 10 C-18 9.34 -18 8.68 -18 8 C-12.06 5.36 -6.12 2.72 0 0 Z " fill="#F4E140" transform="translate(496,441)"/>
<path d="M0 0 C0.33 0.99 0.66 1.98 1 3 C-1.1292541 5.1292541 -3.03714187 5.88529797 -5.7890625 7 C-9.54744948 8.69990648 -13.07773742 10.82434443 -16.64453125 12.890625 C-17.42183594 13.25671875 -18.19914062 13.6228125 -19 14 C-19.66 13.67 -20.32 13.34 -21 13 C-20.47043701 12.67725098 -19.94087402 12.35450195 -19.39526367 12.02197266 C-16.99228554 10.55695409 -14.5898871 9.09098755 -12.1875 7.625 C-11.35412109 7.11710937 -10.52074219 6.60921875 -9.66210938 6.0859375 C-8.85966797 5.59609375 -8.05722656 5.10625 -7.23046875 4.6015625 C-6.49207764 4.15119629 -5.75368652 3.70083008 -4.99291992 3.23681641 C-3.3076477 2.19092775 -1.65032001 1.10021334 0 0 Z " fill="#F7E741" transform="translate(522,426)"/>
<path d="M0 0 C0 0.66 0 1.32 0 2 C-1.2375 2.0825 -2.475 2.165 -3.75 2.25 C-6.84503187 2.63345528 -7.88411781 2.91085986 -10.4375 4.875 C-12.17320248 7.00757127 -12.17320248 7.00757127 -13 10 C-13.66 10 -14.32 10 -15 10 C-14.11721782 6.1157584 -13.33480634 4.29587537 -10.3125 1.625 C-6.56903702 -0.2114158 -4.11628873 -0.3293031 0 0 Z " fill="#171717" transform="translate(579,718)"/>
<path d="M0 0 C-2.54980193 3.14093249 -5.06780441 3.81247177 -8.9375 4.75 C-9.97777344 5.01296875 -11.01804687 5.2759375 -12.08984375 5.546875 C-14.8553723 5.97748079 -16.40063066 5.927004 -19 5 C-16.77417611 4.15665671 -14.54503974 3.32521449 -12.3125 2.5 C-11.68666016 2.26152344 -11.06082031 2.02304687 -10.41601562 1.77734375 C-6.81807701 0.4587275 -3.83479747 -0.29329235 0 0 Z " fill="#F0E13F" transform="translate(477,451)"/>
<path d="M0 0 C0.33 0 0.66 0 1 0 C1 2.64 1 5.28 1 8 C5.29 8 9.58 8 14 8 C14 8.33 14 8.66 14 9 C11.70890403 9.08075665 9.41700733 9.13907731 7.125 9.1875 C5.84882813 9.22230469 4.57265625 9.25710938 3.2578125 9.29296875 C2.18273437 9.19628906 1.10765625 9.09960938 0 9 C-0.66 8.01 -1.32 7.02 -2 6 C-2.66 5.67 -3.32 5.34 -4 5 C-2.69254251 3.31295807 -1.35827971 1.64639965 0 0 Z " fill="#0D0D0D" transform="translate(410,756)"/>
<path d="M0 0 C2.475 0.495 2.475 0.495 5 1 C5.33 1.99 5.66 2.98 6 4 C6.66 4 7.32 4 8 4 C10.04169485 6.90548882 11 8.40142046 11 12 C9.16364422 10.19047409 7.33083792 8.37759362 5.5 6.5625 C4.97535156 6.04623047 4.45070313 5.52996094 3.91015625 4.99804688 C2.58775448 3.68423213 1.29164432 2.34406495 0 1 C0 0.67 0 0.34 0 0 Z " fill="#F7D91C" transform="translate(335,528)"/>
<path d="M0 0 C0.66 0 1.32 0 2 0 C2.125 2.375 2.125 2.375 2 5 C1.34 5.66 0.68 6.32 0 7 C-0.99 7 -1.98 7 -3 7 C-3.28875 7.804375 -3.5775 8.60875 -3.875 9.4375 C-5 12 -5 12 -7 13 C-5.39516194 8.33138019 -3.02509806 3.90741833 0 0 Z " fill="#F7E23F" transform="translate(598,341)"/>
<path d="M0 0 C1.39852912 4.19558737 -0.22736864 6.04566851 -2 10 C-2.69140522 12.77888613 -2.69140522 12.77888613 -3 15 C-3.99 15.33 -4.98 15.66 -6 16 C-5.37183502 12.05050296 -4.1354471 8.80107972 -2.4375 5.1875 C-1.98246094 4.21167969 -1.52742187 3.23585938 -1.05859375 2.23046875 C-0.70925781 1.49441406 -0.35992188 0.75835937 0 0 Z " fill="#F7E73F" transform="translate(616,304)"/>
<path d="M0 0 C0.66 0.99 1.32 1.98 2 3 C0.35 4.65 -1.3 6.3 -3 8 C-3.99 7.67 -4.98 7.34 -6 7 C-4.02 4.69 -2.04 2.38 0 0 Z M2 0 C2.99 0.495 2.99 0.495 4 1 C3.01 1.495 3.01 1.495 2 2 C2 1.34 2 0.68 2 0 Z " fill="#F1DB3E" transform="translate(569,382)"/>
<path d="M0 0 C0.66 0.33 1.32 0.66 2 1 C1.814375 1.556875 1.62875 2.11375 1.4375 2.6875 C0.92448835 5.399133 1.3359276 7.34371039 2 10 C-0.79872437 7.47211993 -2.45773019 5.79588866 -3 2 C-2.01 1.34 -1.02 0.68 0 0 Z " fill="#F5D920" transform="translate(319,501)"/>
<path d="M0 0 C0.33 0.66 0.66 1.32 1 2 C-0.93694542 5.80471422 -2.70921407 9.20283196 -6 12 C-6 8.36804504 -5.04546845 7.25286089 -3 4.3125 C-2.443125 3.50425781 -1.88625 2.69601562 -1.3125 1.86328125 C-0.879375 1.24839844 -0.44625 0.63351562 0 0 Z " fill="#131326" transform="translate(282,744)"/>
<path d="M0 0 C0.99 0.33 1.98 0.66 3 1 C-0.75 4 -0.75 4 -3 4 C-3.33 6.64 -3.66 9.28 -4 12 C-4.33 12 -4.66 12 -5 12 C-5.3125 8.8125 -5.3125 8.8125 -5 5 C-2.5 2.0625 -2.5 2.0625 0 0 Z " fill="#0C0B0C" transform="translate(790,700)"/>
<path d="M0 0 C0.33 0.66 0.66 1.32 1 2 C1.99 2.33 2.98 2.66 4 3 C4 5.97 4 8.94 4 12 C2.09681116 9.14521674 1.5380901 7.58058692 0.875 4.3125 C0.70742188 3.50425781 0.53984375 2.69601562 0.3671875 1.86328125 C0.24601563 1.24839844 0.12484375 0.63351562 0 0 Z " fill="#13162C" transform="translate(699,323)"/>
<path d="M0 0 C-0.5775 0.4125 -1.155 0.825 -1.75 1.25 C-4.02516599 3.01957355 -5.99995399 4.92852378 -8 7 C-8 5.02 -8 3.04 -8 1 C-5.29120665 -0.35439668 -2.99066732 -0.06501451 0 0 Z " fill="#F9E541" transform="translate(272,692)"/>
<path d="M0 0 C0 1.32 0 2.64 0 4 C-3.375 4.125 -3.375 4.125 -7 4 C-7.66 3.34 -8.32 2.68 -9 2 C-2.25 0 -2.25 0 0 0 Z " fill="#F1CD1D" transform="translate(279,689)"/>
<path d="M0 0 C0.66 0.33 1.32 0.66 2 1 C0.58480285 3.0343459 -0.54982123 3.90410393 -2.98046875 4.421875 C-4.98176954 4.66273952 -6.9909944 4.83532741 -9 5 C-6.32239719 2.32239719 -3.52050129 1.32018799 0 0 Z " fill="#111112" transform="translate(744,760)"/>
<path d="M0 0 C1.48206495 0.254496 2.96068615 0.52911762 4.4375 0.8125 C5.67306641 1.03873047 5.67306641 1.03873047 6.93359375 1.26953125 C7.95646484 1.63111328 7.95646484 1.63111328 9 2 C9.33 2.99 9.66 3.98 10 5 C7.8125 5.3125 7.8125 5.3125 5 5 C2.1875 2.5 2.1875 2.5 0 0 Z " fill="#F2C90A" transform="translate(359,548)"/>
</svg>
